<svg width="140" height="140" viewBox="0 0 140 140" fill="none" xmlns="http://www.w3.org/2000/svg">
  <path d="M140 70C140 108.66 108.66 140 70 140C31.3401 140 0 108.66 0 70C0 31.3401 31.3401 0 70 0C108.66 0 140 31.3401 140 70Z" fill="white"></path>
  <path d="M20 70C20 59.6042 23.1727 49.9493 28.6026 41.951L41.7181 55.0665C39.3758 59.5537 38.0515 64.6566 38.0515 70.0688C38.0515 75.0556 39.1758 79.7797 41.1847 84.0016L28.0181 97.1682C22.9457 89.3461 20 80.0171 20 70Z" fill="black"></path>
  <path d="M55.91 41.0668L42.8497 28.0065C50.6681 22.9412 59.9906 20 70 20C97.6142 20 120 42.3858 120 70C120 97.6142 97.6142 120 70 120C59.6118 120 49.9635 116.832 41.9685 111.409L54.8608 98.517C59.5036 101.078 64.8404 102.535 70.5174 102.535C88.4479 102.535 102.983 87.9993 102.983 70.0688C102.983 52.1384 88.4479 37.6029 70.5174 37.6029C65.2634 37.6029 60.3008 38.851 55.91 41.0668Z" fill="black"></path>
  <path d="M59.6032 59.1536C53.5258 65.231 53.5258 75.0844 59.6032 81.1618C65.6806 87.2393 75.5341 87.2393 81.6115 81.1618C87.6889 75.0844 87.6889 65.231 81.6115 59.1536C75.5341 53.0762 65.6806 53.0762 59.6032 59.1536Z" fill="black"></path>
</svg>